# xmcd
#
# Track frame offsets: 
#        150
#        32887
#        63676
#        86701
#        103481
#        124763
#        142920
#
# Disc length: 2330 seconds
#
# Revision: 1
# Processed by: cddbd v1.5.2PL0 Copyright (c) Steve Scherf et al.
# Submitted via: ExactAudioCopy v0.95b4
#
DISCID=66091807
DTITLE=Claude Williamson, Andy Simpkins, Al Tootie Heath - Song for My
DTITLE=Father
DYEAR=1998
DGENRE=Jazz
TTITLE0=My Romance <R. Rodgers>
TTITLE1=Easy Living <R. Rainger>
TTITLE2=Feelin' Fine <H. Hawes>
TTITLE3=Work Song <N. Adderley>
TTITLE4=Alone Together <A. Schwartz>
TTITLE5=There Will Never Be Another You <H. Warren>
TTITLE6=Song for My Father <H. Silver>
EXTD=YEAR: 2002
EXTT0=
EXTT1=
EXTT2=
EXTT3=
EXTT4=
EXTT5=
EXTT6=
PLAYORDER=
